<svg viewBox="0 0 376.16 160.22" xmlns="http://www.w3.org/2000/svg" xmlns:xlink="http://www.w3.org/1999/xlink" id="Layer_1" overflow="hidden"><defs><linearGradient x1="284.91" y1="159.5" x2="284.91" gradientUnits="userSpaceOnUse" id="linear-gradient"><stop offset="0.3" stop-color="#007833"/><stop offset="0.64" stop-color="#009900"/><stop offset="1" stop-color="#99CC00"/></linearGradient></defs><path d="M275.91 159.5 275.91 75.92C276.004 69.1882 278.619 62.7366 283.24 57.84 288.229 52.5271 294.816 48.9879 302 47.76 314.53 45.5 323.3 40.63 328.81 32.86 330.67 30.23 333.69 27.2 337.48 27.77 339.62 28.08 342.58 29.66 344.48 35.33 346.54 41.49 346.61 50.33 344.68 59 342.509 69.1666 337.53 78.5207 330.31 86L330.31 86C321 95 307.1 99.35 294.81 97.27 293.288 97.0132 292.263 95.5715 292.52 94.05 292.777 92.5285 294.218 91.5032 295.74 91.76L295.74 91.76C306.33 93.55 318.32 89.76 326.3 82.06 332.772 75.3303 337.23 66.923 339.17 57.79 340.86 50.19 340.85 42.26 339.17 37.1 338.17 34.24 337.1 33.36 336.65 33.29 336.2 33.22 335.02 33.74 333.35 36.09 326.96 45.09 317.02 50.73 302.98 53.25 297.014 54.2689 291.543 57.2078 287.4 61.62 283.723 65.4845 281.629 70.5869 281.53 75.92L281.53 156.7C281.53 157.33 281.53 159.5 281.53 159.5ZM264.51 69.93C260.75 69.93 255.78 68.64 250.88 66.37 245.549 63.9685 240.762 60.5084 236.81 56.2L236.81 56.15C228.97 46.87 225.87 35.88 224.65 28.31 223.21 19.38 223.65 10.55 225.93 5.31 227.62 1.15 230 0.14 231.72 0 234.36-0.19 236.82 1.55 239.01 5.17 243.49 12.56 250.59 17.17 260.73 19.32 266.975 20.6659 272.548 24.1671 276.47 29.21 280.34 34.1518 282.451 40.2432 282.47 46.52 282.378 48.0636 281.051 49.2401 279.508 49.1477 278.093 49.0631 276.965 47.9347 276.88 46.52L276.88 46.52C276.859 41.4879 275.159 36.6067 272.05 32.65 268.935 28.6424 264.51 25.8569 259.55 24.78 247.98 22.35 239.45 16.72 234.21 8.06 233.728 7.08507 233.009 6.24627 232.12 5.62 231.72 5.94 230.77 7.26 230.12 10.53 228.97 15.91 229.19 23.33 230.69 30.38 231.97 36.38 234.8 45.13 241.02 52.51 247.88 60.23 259.07 64.34 264.52 64.34 266.061 64.34 267.31 65.5891 267.31 67.13 267.31 68.6709 266.061 69.92 264.52 69.92Z" id="Carbon_Neutral_Driving" fill="url(#linear-gradient)"/><path d="M9.9 101.18 3.65 101.18 3.65 94.49 9.9 94.49ZM9.45 114.11 9.45 158.88 4.1 158.88 4.1 114.11Z" fill="#007833"/><path d="M26.93 158.88 21.58 158.88 21.58 124.19C21.58 122.46 21.58 120.74 21.45 119.01 21.32 117.28 21.25 115.65 21.13 114.11L26.66 114.11 26.93 120.71 27.11 120.89C28.4626 118.293 30.5492 116.15 33.11 114.73 35.5696 113.41 38.3187 112.723 41.11 112.73 43.2332 112.686 45.3469 113.025 47.35 113.73 48.9373 114.303 50.4052 115.164 51.68 116.27 52.819 117.286 53.7702 118.494 54.49 119.84 55.1703 121.11 55.707 122.451 56.09 123.84 56.4356 125.109 56.66 126.408 56.76 127.72 56.85 128.97 56.89 130.01 56.89 130.84L56.89 158.84 51.54 158.84 51.54 130C51.54 126.08 50.5 123.05 48.42 120.91 46.34 118.77 43.42 117.69 39.77 117.69 37.7883 117.643 35.8259 118.089 34.06 118.99 32.4905 119.825 31.1247 120.996 30.06 122.42 28.9687 123.892 28.1678 125.558 27.7 127.33 27.1855 129.217 26.9298 131.164 26.94 133.12Z" fill="#007833"/><path d="M97.21 127.84C96.97 124.39 95.81 121.84 93.73 120.17 91.65 118.5 88.73 117.67 84.99 117.67 83.0239 117.641 81.0895 118.167 79.41 119.19 77.7512 120.226 76.3384 121.612 75.27 123.25 74.0817 125.073 73.1938 127.075 72.64 129.18 71.9997 131.533 71.6834 133.962 71.7 136.4 71.6848 138.855 72.001 141.3 72.64 143.67 73.1941 145.796 74.0818 147.822 75.27 149.67 76.3289 151.327 77.7431 152.727 79.41 153.77 81.0883 154.806 83.0279 155.34 85 155.31 88.1152 155.445 91.1682 154.41 93.56 152.41 95.7527 150.497 97.0738 147.776 97.22 144.87L103 144.87C101.58 155.097 95.7533 160.213 85.52 160.22 82.501 160.297 79.5117 159.609 76.83 158.22 74.4211 156.93 72.333 155.116 70.72 152.91 69.0699 150.621 67.8469 148.053 67.11 145.33 66.3038 142.456 65.8967 139.485 65.9 136.5 65.8952 133.516 66.3162 130.546 67.15 127.68 67.9196 124.94 69.1911 122.366 70.9 120.09 72.5666 117.888 74.6968 116.078 77.14 114.79 79.8413 113.406 82.8456 112.718 85.88 112.79 88.09 112.766 90.289 113.104 92.39 113.79 94.3393 114.432 96.1531 115.429 97.74 116.73 99.3009 118.02 100.563 119.634 101.44 121.46 102.39 123.454 102.921 125.622 103 127.83Z" fill="#007833"/><path d="M141.26 114.11 146.61 114.11 146.61 148.8C146.61 150.53 146.61 152.25 146.75 153.97 146.89 155.69 146.94 157.33 147.06 158.88L141.53 158.88 141.26 152.28 141.08 152.1C139.722 154.691 137.637 156.829 135.08 158.25 132.622 159.574 129.872 160.262 127.08 160.25 124.956 160.299 122.842 159.96 120.84 159.25 119.251 158.681 117.782 157.819 116.51 156.71 115.374 155.695 114.424 154.49 113.7 153.15 113.014 151.883 112.478 150.54 112.1 149.15 111.756 147.897 111.532 146.615 111.43 145.32 111.34 144.1 111.29 143.04 111.29 142.15L111.29 114.15 116.64 114.15 116.64 143C116.64 146.933 117.683 149.967 119.77 152.1 121.857 154.233 124.74 155.303 128.42 155.31 130.398 155.36 132.357 154.917 134.12 154.02 135.692 153.184 137.058 152.009 138.12 150.58 139.213 149.113 140.014 147.449 140.48 145.68 140.995 143.79 141.25 141.839 141.24 139.88Z" fill="#007833"/><path d="M162.84 158.88 157.31 158.88C157.43 157.33 157.54 155.7 157.62 153.97 157.7 152.24 157.76 150.53 157.76 148.8L157.76 94.49 163.11 94.49 163.11 120.71 163.29 120.89C164.837 118.272 167.137 116.181 169.89 114.89 172.601 113.523 175.593 112.804 178.63 112.79 181.582 112.685 184.507 113.376 187.1 114.79 189.389 116.132 191.342 117.979 192.81 120.19 194.32 122.489 195.407 125.039 196.02 127.72 196.68 130.529 197.015 133.404 197.02 136.29 197.005 139.142 196.669 141.983 196.02 144.76 195.412 147.492 194.34 150.1 192.85 152.47 191.424 154.729 189.502 156.634 187.23 158.04 184.71 159.533 181.818 160.279 178.89 160.19 175.8 160.231 172.749 159.492 170.02 158.04 167.311 156.567 165.001 154.456 163.29 151.89L163.11 152.25ZM177.56 117.67C175.25 117.598 172.96 118.122 170.91 119.19 169.136 120.163 167.609 121.532 166.45 123.19 165.261 124.936 164.4 126.885 163.91 128.94 163.378 131.113 163.109 133.343 163.11 135.58 163.101 138.067 163.355 140.547 163.87 142.98 164.31 145.211 165.154 147.343 166.36 149.27 167.531 151.098 169.144 152.601 171.05 153.64 173.304 154.81 175.822 155.378 178.36 155.29 180.618 155.382 182.844 154.724 184.69 153.42 186.349 152.17 187.695 150.55 188.62 148.69 189.589 146.702 190.263 144.583 190.62 142.4 190.998 140.237 191.192 138.046 191.2 135.85 191.195 133.674 190.957 131.505 190.49 129.38 190.053 127.316 189.268 125.341 188.17 123.54 187.11 121.832 185.678 120.386 183.98 119.31 182.042 118.158 179.813 117.589 177.56 117.67Z" fill="#007833"/><path d="M231.33 127.31C231.037 123.623 229.997 121.097 228.21 119.73 226.423 118.363 223.927 117.677 220.72 117.67 219.378 117.663 218.039 117.784 216.72 118.03 215.538 118.245 214.404 118.669 213.37 119.28 212.388 119.882 211.562 120.708 210.96 121.69 210.296 122.836 209.886 124.112 209.76 125.43L204 125.43C204.273 123.357 204.953 121.359 206 119.55 206.931 117.998 208.178 116.659 209.66 115.62 211.174 114.585 212.871 113.845 214.66 113.44 216.648 112.987 218.681 112.762 220.72 112.77 225.653 112.77 229.547 113.96 232.4 116.34 235.253 118.72 236.65 122.463 236.59 127.57L236.59 148.8C236.54 150.53 236.59 152.25 236.68 153.97 236.77 155.69 236.92 157.33 237.04 158.88L231.6 158.88 231.42 152.28 231.24 152.28 230.98 152.9C230.44 153.931 229.715 154.853 228.84 155.62 227.834 156.519 226.727 157.298 225.54 157.94 224.24 158.65 222.86 159.204 221.43 159.59 219.98 160.006 218.479 160.218 216.97 160.22 214.988 160.232 213.018 159.915 211.14 159.28 209.397 158.699 207.789 157.774 206.41 156.56 205.058 155.358 203.978 153.882 203.24 152.23 202.439 150.389 202.043 148.397 202.08 146.39 202.016 143.556 202.895 140.78 204.58 138.5 206.26 136.277 208.509 134.55 211.09 133.5 212.615 132.839 214.218 132.375 215.86 132.12 217.572 131.85 219.298 131.686 221.03 131.63 222.79 131.57 224.54 131.55 226.29 131.58 228.04 131.61 229.73 131.58 231.29 131.45ZM207.88 146.39C207.88 149.39 208.88 151.67 210.88 153.13 212.945 154.606 215.433 155.371 217.97 155.31 220.44 155.417 222.891 154.846 225.06 153.66 226.818 152.617 228.265 151.122 229.25 149.33 230.264 147.438 230.899 145.366 231.12 143.23 231.388 140.937 231.462 138.625 231.34 136.32 229.44 136.373 227.153 136.4 224.48 136.4 221.885 136.391 219.297 136.663 216.76 137.21 214.467 137.662 212.315 138.652 210.48 140.1 208.747 141.5 207.88 143.597 207.88 146.39Z" fill="#007833"/><path d="M252.2 119 243.28 119 243.28 114.1 252.2 114.1 252.2 104.56 257.56 102.24 257.56 114.1 267.72 114.1 267.72 119 257.56 119 257.56 149C257.44 153.22 259.49 155.33 263.71 155.33 264.543 155.33 265.343 155.3 266.11 155.24 266.872 155.183 267.625 155.032 268.35 154.79L268.35 159.43C267.469 159.678 266.574 159.871 265.67 160.01 264.757 160.159 263.835 160.235 262.91 160.24 260.687 160.366 258.467 159.95 256.44 159.03 255.088 158.338 253.995 157.23 253.32 155.87 252.695 154.528 252.355 153.07 252.32 151.59 252.26 150.04 252.23 148.49 252.23 146.95Z" fill="#007833"/><path d="M311.15 112.77C314.356 112.678 317.537 113.364 320.42 114.77 322.959 116.072 325.181 117.916 326.93 120.17 328.682 122.443 329.985 125.029 330.77 127.79 332.436 133.453 332.436 139.477 330.77 145.14 329.979 147.886 328.676 150.458 326.93 152.72 325.181 154.974 322.959 156.818 320.42 158.12 311.855 162.58 301.328 160.312 295.36 152.72 293.621 150.455 292.322 147.884 291.53 145.14 289.863 139.477 289.863 133.453 291.53 127.79 292.316 125.032 293.615 122.446 295.36 120.17 299.113 115.284 304.993 112.51 311.15 112.72ZM326.22 136.49C326.209 134.31 325.923 132.139 325.37 130.03 324.84 127.874 323.951 125.822 322.74 123.96 321.532 122.133 319.933 120.596 318.06 119.46 313.759 117.073 308.531 117.073 304.23 119.46 302.357 120.593 300.762 122.131 299.56 123.96 298.346 125.821 297.454 127.873 296.92 130.03 295.8 134.267 295.8 138.723 296.92 142.96 297.452 145.114 298.345 147.163 299.56 149.02 300.758 150.855 302.355 152.396 304.23 153.53 308.534 155.904 313.756 155.904 318.06 153.53 319.936 152.394 321.535 150.853 322.74 149.02 323.952 147.163 324.841 145.114 325.37 142.96 325.924 140.848 326.21 138.674 326.22 136.49Z" fill="#007833"/><path d="M346.2 158.88 340.85 158.88 340.85 124.19C340.85 122.46 340.8 120.74 340.71 119.01 340.62 117.28 340.52 115.65 340.4 114.11L345.93 114.11 346.2 120.71 346.37 120.89C347.726 118.295 349.812 116.154 352.37 114.73 354.829 113.409 357.579 112.722 360.37 112.73 362.493 112.687 364.607 113.026 366.61 113.73 368.193 114.306 369.657 115.166 370.93 116.27 372.071 117.284 373.023 118.493 373.74 119.84 374.428 121.108 374.968 122.45 375.35 123.84 375.696 125.109 375.92 126.408 376.02 127.72 376.11 128.97 376.15 130.01 376.15 130.84L376.15 158.84 370.8 158.84 370.8 130C370.8 126.08 369.76 123.05 367.68 120.91 365.6 118.77 362.68 117.69 359.03 117.69 357.048 117.643 355.086 118.089 353.32 118.99 351.751 119.825 350.385 120.996 349.32 122.42 348.23 123.894 347.426 125.559 346.95 127.33 346.444 129.218 346.192 131.165 346.2 133.12Z" fill="#007833"/><text fill="#009900" font-family="Univers-45Light,Univers 45 Light" font-weight="300" font-size="67.98" letter-spacing="-0.03em" transform="matrix(1 0 0 1 0 69.93)">bp</text></svg>